/* XPM */
static char *_27bacc446924c7ddd47a59fb1b4e963gHeRqUotIlZF7ZgA[] = {
/* columns rows colors chars-per-pixel */
"64 64 218 2 ",
"   c #2B1C19",
".  c #321D1A",
"X  c #1A3622",
"o  c #242627",
"O  c #353628",
"+  c #373539",
"@  c #32312C",
"#  c #473834",
"$  c #593939",
"%  c #552D2E",
"&  c #783435",
"*  c #14472C",
"=  c #195035",
"-  c #3A4639",
";  c #26583E",
":  c #284833",
">  c #53443D",
",  c #3F4244",
"<  c #3E5249",
"1  c #365D4C",
"2  c #2E6F44",
"3  c #3A654B",
"4  c #2E7447",
"5  c #34754A",
"6  c #3C6B51",
"7  c #3A7950",
"8  c #454749",
"9  c #4D4B51",
"0  c #524E54",
"q  c #4A5B55",
"w  c #595557",
"e  c #4E534A",
"r  c #664444",
"t  c #655755",
"y  c #725751",
"u  c #764147",
"i  c #48674E",
"p  c #456C58",
"a  c #5D615A",
"s  c #47775B",
"d  c #55634C",
"f  c #6E785D",
"g  c #5B6C66",
"h  c #497A63",
"j  c #567967",
"k  c #687967",
"l  c #706B6B",
"z  c #A93E36",
"x  c #D8383E",
"c  c #E13B3D",
"v  c #DA3C44",
"b  c #E23E42",
"n  c #8C5552",
"m  c #B74744",
"M  c #A74C54",
"N  c #B15257",
"B  c #97615E",
"V  c #9B6E54",
"C  c #A75C61",
"Z  c #987675",
"A  c #8D6C65",
"S  c #A86A6B",
"D  c #B46B6C",
"F  c #CA474A",
"G  c #D5464C",
"H  c #DA4C55",
"J  c #C8575D",
"K  c #D45458",
"L  c #CC534F",
"P  c #E54C47",
"I  c #E6524B",
"U  c #D56058",
"Y  c #CB5961",
"T  c #DA5C65",
"R  c #C4666A",
"E  c #C77376",
"W  c #358452",
"Q  c #3D9063",
"!  c #43855A",
"~  c #4B8467",
"^  c #54866A",
"/  c #469663",
"(  c #569466",
")  c #5C8370",
"_  c #678874",
"`  c #788779",
"'  c #68977A",
"]  c #6D8F71",
"[  c #55AA72",
"{  c #718055",
"}  c #838C72",
"|  c #B68364",
" . c #0B679A",
".. c #126E9D",
"X. c #15719E",
"o. c #0C6BA2",
"O. c #136EA3",
"+. c #0E76A6",
"@. c #1374A5",
"#. c #1A74A6",
"$. c #1276AA",
"%. c #1B76A8",
"&. c #1378AA",
"*. c #1C79AC",
"=. c #1C79A5",
"-. c #1B7FB3",
";. c #217CAC",
":. c #237DB1",
">. c #817D81",
",. c #2683B6",
"<. c #318DBD",
"1. c #3490BE",
"2. c #2480AF",
"3. c #769784",
"4. c #759185",
"5. c #7BB382",
"6. c #5599BE",
"7. c #579CBE",
"8. c #4E91BB",
"9. c #3A96C6",
"0. c #3996C5",
"q. c #419ECB",
"w. c #569BC4",
"e. c #589DC6",
"r. c #439FD0",
"t. c #5DA0C8",
"y. c #49A5D5",
"u. c #61A5CA",
"i. c #8E9695",
"p. c #9A9898",
"a. c #8B8D89",
"s. c #B6928F",
"d. c #B39091",
"f. c #8AA695",
"g. c #8CB699",
"h. c #B4A29E",
"j. c #9EADA8",
"k. c #A4A4A4",
"l. c #AAAAAA",
"z. c #B1A9A8",
"x. c #ACB6B3",
"c. c #B2B2B3",
"v. c #BBBCBB",
"b. c #B6BBB7",
"n. c #ABB3AB",
"m. c #CD9092",
"M. c #D6A396",
"N. c #C9A9A8",
"B. c #C7B9B7",
"V. c #CAADB1",
"C. c #E9AFAD",
"Z. c #97CBA9",
"A. c #B4C3BC",
"S. c #A3D7B2",
"D. c #A9C9B2",
"F. c #C6C3BF",
"G. c #D7C6BF",
"H. c #FAC0BF",
"J. c #BEBFC3",
"K. c #FBBCC4",
"L. c #B9C9C3",
"P. c #BCDBC4",
"I. c #B6E7C6",
"U. c #C5C5C5",
"Y. c #C5CACA",
"T. c #CCCBCB",
"R. c #CAC5C5",
"E. c #D4CCCC",
"W. c #C9D2CC",
"Q. c #CFCFD1",
"!. c #DACFD5",
"~. c #CAD5D2",
"^. c #D4D4D4",
"/. c #DCDAD6",
"(. c #DCDDDD",
"). c #D6D9D6",
"_. c #F8D5CE",
"`. c #E3DCDC",
"'. c #E3D8D4",
"]. c #F9D7D7",
"[. c #E9D5CE",
"{. c #C9E6D4",
"}. c #D9E9DB",
"|. c #CDEBD4",
" X c #E3E6DD",
".X c #E8EAC5",
"XX c #E8DFE2",
"oX c #FFDEE3",
"OX c #D7ECE2",
"+X c #E4E4E4",
"@X c #EAE6E5",
"#X c #EAE9E5",
"$X c #E7ECED",
"%X c #EBEBEC",
"&X c #E7E9E7",
"*X c #F1EDED",
"=X c #FEE6E5",
"-X c #ECF2EC",
";X c #E5FDED",
":X c #EBFFEE",
">X c #E4F3E7",
",X c #F3F1EE",
"<X c #FBF8EC",
"1X c #ECEEF1",
"2X c #F2EFF1",
"3X c #EDF3F3",
"4X c #ECFDF3",
"5X c #E7FFFF",
"6X c #EDFFFF",
"7X c #E5FFF2",
"8X c #F3F3F4",
"9X c #FBF6F5",
"0X c #F3FCF5",
"qX c #FBFBF6",
"wX c #F5F5F9",
"eX c #FCF6FA",
"rX c #F5FEFD",
"tX c #FEFEFE",
/* pixels */
"tXtXtXtXtXtXtXtXtXtXtXtXtXtXtXtXtXtXtXtXtXtXtXtXtXtXtXtXtXtXtXtXtXtXtXtXtXtXtXtXtXtXtXtXtXtXtXtXtXtXtXtXtXtXtXtXtXtXtXtXtXtXtXtX",
"tXtXtXtXtXtXtXtXtXtXtXtXtXtXtXtXtXtXtXtXtXtXtXtXtXtXtXtXtXtXtXtXtXtXtXtXtXtXtXtXtXtXtXtXtXtXtXtXtXtXtXtXtXtXtXtXtXtXtXtXtXtXtXtX",
"tXtXtXtXtXtXtXtXtXtXtXtXtXtXtXtXtXtXtXtXtXtXtXtXtXtXtXtXtXtXtXtXtXtXtXtXtXtXtXtXtXtXtXtXtXtXtXtXtXtXtXtXtXtXtXtXtXtXtXtXtXtXtXtX",
"tXtXtXtXtXtXtXtXtXtXtXtXtXtXtXtXtXtXtXtXtXtXtXtXtXtXtXtXtXtXtXtXtXtXtXtXtXtXtXtXtXtXtXtXtXtXtXtXtXtXtXtXtXtXtXtXtXtXtXtXtXtXtXtX",
"tXtXtXtXtXtXtXtXtXtXtXtXtXtXtXtXtXtXtXtXtXtXtXtXtXtXtXtXtXtXtXtXtXtXtXtXtXtXtXtXtXtXtXtXtXtXtXtXtXtXtXtXtXtXtXtXtXtXtXtXtXtXtXtX",
"tXtXtXtXtXtXtXtXtXtXtXtXtXtXtXtXtXtXtXtXtXtXtXtXtXtXtXtXtXtXtXtXtXtXtXtXtXtXtXtXtXtXtXtXtXtXtXtXtXtXtXtXtXtXtXtXtXtXtXtXtXtXtXtX",
"tXtXtXtXtXtXtXtXtXtXtXtXtXtXtXtX*X9XtXtXtXtXtXtXtXtXtXtXtXtXtXtXtXtXtXtXtXtXtXtXtXtXtXtXtXtXtXtXqXtXtXtXtXtXtXtXtXtXtXtXtXtXtXtX",
"tXtXtXtXtXtXtXtXtXtXtXtXtXtXtXtX`.#XwXtXtXrXtXtXtXtXtXtXtXtXtXtXtXtXtXtXtXtXtXtXtXtXtXtXtXtXtXtX8XwXtXtXtXtXtXtXtXtXtXtXtXtXtXtX",
"tXtXtXtXtXtXtXtXtXtXtXtXqXtXtXtX*XF.qXtXrXrXrXtXtXtXtXtXtXtXtXtXtXtXtXtXtXtXtXtXtXtXtXtXtXtXtX$X%X0XtXtXqXtXtXqXtXtXtXtXtXtXtXtX",
"tXtXtXtXtXtXtXtXqXtXtXtXtXtX8XqXqXB.'.tX3XrXrXrXtXtXtXtXtXtXtXtXtXtXtXtXtXtXtXtXtXqXqXtX8XtXtXv.$XtXtXqXtXtXtXtXtXtXtXtXtXtXtXtX",
"tXtXtXtXtXtXtXtXtXtXtXtXtXtX8XtX=Xs.[.qXtXrXrXrXtXtXtXtXtXtXtXtXtXtXtXtXtXtXtXtXtXtXtXtXtXtX3XL.rXtXtX0XtXtXtXtXtXtXtXtXtXtXtXtX",
"tXtXtXtXtXtXtXtXtXtXtXtXtXtXtX=XB n N.<XtX-XtXrXrXtXtXtXtXtXtXtXtXtXtXtXtXtXtXtXtXtXtX0XtXrXOXb.tXrX3XtXtXtXtXtXtXtXtXtXtXtXtXtX",
"tXtXtXtXtXtXtXtXtXwXtXtXqXqXtXa.& C D <XqXtXtXtXrXtXtXtXtXtXtXtXtXtXtXtXtXtXtXtXtXtXtXrXrXrXW.g L.rX3XtXtXtXtXtXtXtXtXtXtXtXtXtX",
"tXtXtXtXtXtXtXtXtXqXtXtXwXtX&X$ M J M H.9XqX8XrXtXtXtXtXtXtXtXtXtXtXtXtXtXtXtXtXtXtX0XtXrXrXf.q g 4XrXrXtXtXtXtXtXtXtXtXtXtXtXtX",
"tXtXtXtXtXtXtXtXtXtXtXwXqXtXc.% N F M m.9XqXtXtXtXtXtXtXtXtXtXtXtXtXtXtXtXtXtXtXtXtX0XrXrX~.j g + A.rXrXtXtXtXtXtXtXtXtXtXtXtXtX",
"tXtXtXtXtXtXtXtXtXtXtXtXtX9Xl r J G m E _.qX9XtXtXtXtXtXtXtXtXtXtXtXtXtXtXtXtXtXtX0XtX0X4Xj.j 1 : _ 4XrXtXtXtXtXtXtXtXtXtXtXtXtX",
"tXtXtXtXtXtXtXtXtXtXtXtXeX`.8 n K v L R C.qXqXtXtXtXtXtXtXtXtXtXtXtXtXtXtXtXrXrXrXtXeXeXrX_ j 1 ; h L.rXtXeXtXtXtXrXtXtXtXtXtXtX",
"tXtXtXtXtXtXtXtXtXeXtXtXtXp.# A K v F J m.<XqXtXtXtXtXtXtXtXtXtXtXtXtXtXtXtXrX6XrXtXtXtX~.p j = * h 3.;XtXeXtXtXrXrXtXtXtXtXtXtX",
"tXtXtXtXtXtXtXtXtXtXtXtXtXw 8 S K b v K R ].qXtXtXtXtXtXtXtXtXtXtXtXtXtXtXtXrXrXtXtXtXtXf.6 h * * h p D.tXtXtXtXrXrXtXtXtXtXtXtX",
"tXtXtXtXtXtXtXtXtXtXwXtXB.  r S K P v H Y C.qX0XtXtXtXtXtXtXtXtXtXtXtXtXtXtXtXrXtXtXtX>Xj h p X * s s _ rX0XtXtXtXtXtXtXtXtXtXtX",
"tXtXtXtXtXtXtXtXeXtXrXtXl   $ D U P v G T E <X0XtXtXtXtXtXtXtXtXtXtXtXtXtXtXtXtXtXtXrXA.p ) e X : 6 ~ ; P.rXtXtXtXtXtXtXtXtXtXtX",
"tXtXtXrXrXtXtXtXtXtXtX).+ @ % C K P x x T N _.qXtXtXtXtXtXtXtXtXtXtXtXtXtXtXtXtXtXrXrX3.h ^ - @ : i s ; ' 4X0XtXtXtXtXtXtXtXtXtX",
"tXtXtXrXrXtXtXtXtXwXrXa.@ . u D L P c x H N m.qXeXtXtXtXtXtXtXtXtXtXtXtXtXtXtXtXtXrXOX~ ~ ~ - O O d ^ 6 3 {.rXtXtXtXtXtXtXtXtXtX",
"tXtXtXrXrXtXtXtXtXtX{.< e # m.R F I b v G Y S =XeXtXtXtXtXtXtXtXtXtXtXtXtXtXtXtXtX4XD.h Q ^ - O O d ] p : f.tXqXtXtXtXtXtXtXtXtX",
"tXeXtXtXtXqXtXeXeXtX4.< a l oXR L I x G G Y M K.9XeXqXtX8XtXeXtXtXtXrXrXtXeXeXtXtX0X4.h h j > r $ t k i f.|.tXtXtXtXtXtXtXtXrXrX",
"tXtXtXrXtXtXtXeXtXQ.q q a h.oXC z L m L m R M m.eX0XtXtXtXtXeXtXtXtXrXrXtXtXeXtXtX)._ ^ s j # % r t n.{.;X;X8XeXtXtXtXtXtXtXrXrX",
"tXtXtXrXtXtXeXtXtXa.8 q a '.=XM.M.| V V n B C B @XrXtXqXtXtXtXtXtXtXtXtXtXtXeXtXtXn.h s ~ 3   % Z Z  XtX>X>X9X9XtXtXtXtXtXtXrXrX",
"tXtXtXtXtXtX9XtXQ.8 g e } #X].<X.X} { f A y Z y b.rX0XtXtXeXtXtXtXeXtXtXtXtXtXtX-X` j s ^ : > s.].d.E.-X&X%X8XtXtXtXtXtXtXtXtXrX",
"tXtXtXtXtXtXtXtX>.+ g 8 b.,X`.:X5.( [ ( ] d z.T.x.>XtXtXeXtXtXtXtXtXtXtXtXtXtXtXT.).4X3.p k Z d._.V.`.8X8XwX8XqXtXtXtXtXtXtXtXrX",
"tXeXtXtXtXtXtX/.+ 9 0 w }.-X#XA.W [ / 4 g.|.0X0X}.Y.tXeXtXtX0XtXtXtXtXrXrXtXtX4XU.tXrXf.k f % n V.!.eX8X@X8X8X3XrXrXtXtXtXtXtXrX",
"tXeXtXqXtXtXtXa.o w 9 >.$X>X>Xg.W Q [ Z.:XqX4XrXtXB.9XeXeXtXrXrXtXtXtXtXtXtXrXOX).tX}.k ` i.A s.'./.+X2X2X8XrXrX6XrXtXtXtXtXtXrX",
"tXqXtXqXtXtX-X, @ 9 0 k.qX}.|.' W [ I.4XqXqXtX0XtXR.XXtX9XeXrX4XtXtXtXtXtXtX0X~.tX8X0X` ` n.G.V.R.`.1XwX%X2XtX3X6XrXtXtXtXtXtXtX",
"eXtXtXtXrXtXp.o + 9 w !.,X}.{.s 4 Z.7X:XtXtXtXtXtX$Xv.eXtXtX0XtXtXtXtXqXtXtX3X^.tXqXtXT.k.b.F.R.T.(.8X8X%X8XwX0X8XtXtXtXtXtXtXtX",
"eX9XtXtXtXtX8 o 8 8 l XX@X XZ.! 7 Z.4XqXtXtXtXtXtXrXA.8XtXtXqXtXtXtXtXtXtXtX(.+XtXqX(.v.c.U.Y.Y.^.(.wX8X%X8X9XqXwXqXtXtXtXtXtXtX",
"tXtXqXtXtXtXU.@ 8 + z.eX).;Xg.2 7 S.4XqXtXtXtXtXrXtXQ.(.tXtXtXtXtXtXtXtXqXtX^.8XtX8Xv.c.Y.^.T.T.).+XwXwX%X8XqXtX8XqXtXtXtXtXtXtX",
"tXeXtX0XtXtXtXJ., 9 !.`./.}.' ! 5 S.4X0XtXtXtXtXtXtX-XF.tXqXtXqXtXtXtXtXtX%X^.tXqX+Xv.v./.(.^.).).+XqXwX%X8XwXqX8XwXtXtXtXtXtXqX",
"tX8XtXtXtXtX1XtXU.i.^.^.}.P.( W 2 S.:X0XtXtXtXtXtXrXtXv.*XtXtXtXtXtXtXqXtX^.&XtXqX).Y.U.(.%X).(.(.&XwX8X%X8X8XwXwXqXtXtXtXtXtXqX",
"tXqX8XtXtX9XtX%XtXrX+XT.>XD.2 W 7 I.4XtXtXtXtXtXtXrXtX).^.tXeXtXtXtXtXqXtXT.qXtXtX/.^.Y.(.wX(.(.&X&X8X%X&X%X8XwXqXtXtXtXtXtXtXtX",
"tXqXtXtXtX,XtXtX$XtXtX-X).] 5 / ~ |.0XtXtXtXtXtXtXtXtX8XR.eXeXtXtXtXtXtX(./.tXtXtX,X).T.%XwX(.(.+X(.%X%X%XwXqXqXtXtXtXtXtXtXtXtX",
"tXtXtXtXeXtX9XtXtXtXtX,XqX] 5 / ( OX0XtXtXtXtXtXtXtXtXtXR.*XtXtXtXqXtXtXU.%XtXtXqXtX(.^.wX8X(.+X)./.%XwXqXtXtXtXtXtXtXqXtXtXtXtX",
"tXtXtXtXtXtXtXtXtXtXtX0X0X;X( ! ) ;X0XtXtXtXtXtXtXtX9XtX@XT.tXtXtXtXqXqXY.tXtXtXtXtX8X+X%X8X&X(.).%XqXtXtXtXtXtXtXtXtXtXtXtXtXtX",
"tXtXtXtXtXtXtXtXtXtXtXtX0X;XS.7 ' ;XrXtXtXtXtXtXtXrXtXeXeXR.eXtXtXtXtX/.(.tXtXtXtXtXqX%X&X&X+X(.%XqXtXtXtXtXtXtXtXtXtXtXtXtXtXtX",
"tXtXtXtXtXtXtXtXrXtXtXtXtX0X7X' g.:X0XtXtXtXtXtXtX0XtX9XtXE.(.tXtXtXtXU.wXtXqXtXtXtXtXqX%X%X%X8XtXtXtXtXtXtXtXtXtXtXtXtXtXtXtXtX",
"tXtXtXtXtXtXtXtXrXrXtXwXtXtX4XP.{.0XqXtXtXtXtXtXrXtXtXqXtX#XY.tX0XtX8XT.tXtXtXtXtXqXtXtX8X8XtXtXtXtXtXqXtXtXtXtXtXtXtXtXtXtXtXtX",
"tXtXtXtXtXtXtXtXrXrXtXeXtXtX4X4X4XtX9XtXtXtXtXtXrXtXtXtXtXtXY.3XtXtX^.+XtXtXtXtXtXqXtXtXqXqXtXtXtXtXtXtXtXtXtXtXtXtXtXtXtXtXtXtX",
"tXtXtXtXtXtXtXtXrXrXtXtXeXtXtXrXrXtX9XtXtXtXtXrXrXtXtXqXtXtX^.~.tXqXY.wXtXtXtXqXtXtXtXtXtXtXtXtXtXtXtXtXtXtXtXtXtXtXtXtXtXtXtXtX",
"tXtXtXtXtXtXtXtXrXrXtXtXeXtXtX0XtXtXeXtXtXtXtXtXrXrXtX9XtXqX$XL.8X%X(.tXtXtXtXqXtXtXtXtXtXtXtXtXtXtXtXtXtXtXtXtXtXtXtXtXtXtXtXtX",
"tXtXtXtXtXtXtXtXrXrXtXtXtXtXwXtXtXtXtXtXtXtXtXtXtXtXtXtXeXtXtXY.Y.Y.8XqXtXtXqXtXqXtXtXtXtXtXtXtXtXtXqXtXtXtXtXtXtXtXtXtXtXtXtXtX",
"tXtXtXtXtXtXtXtXtXtXtXtXtXtXtXtXtXtXtXtXtXtXtXtXqXtXtXqXtXtX%X/.Y.^.%XtXtXtXtXeXtXtXtXtXtXtXtXtXtXtXtXtXtXtXtXtXtXtXtXtXtXtXtXtX",
"tXtXtXtXtXtXtXtXtXtXtXtXtXtXtXtXtXtXtXtXtXtXtXtXtXtX9X9XtX,X).T.U.U.+X%X8XtX8XtXtXtXtXtXtXtXtXtXtXtXtXtXtXtXtXtXtXtXtXtXtXtXtXtX",
"tXtXtXtXtXtXtXtXtXtXtXtXtXtXtXqXqXqXqXqXeXqXeXqXeX9XeXtXqX/.T./.l.z.+X@X+XtXwX9XqX9XqXqXeXqXeXqXqXqXtXtXtXtXtXtXtXtXtXtXtXtXtXtX",
"tXtXtXtXtXtXtXtXtXtXtXtXtXeXqX9X9X9X9X9X9X9XwX8X,X8X9X8X).b.v.^.k.k.(. XU.#XtX8XwX8X8XwXwX9X9X9X9X9X9XqXtXtXtXtXtXtXtXtXtXtXtXtX",
"tXtXtXtXtXtXtXtXtXtXtXtXtXtXwXwX8X8X3X3X3X3X3X3X1X0X$XY.v.Q.(.^.k.k.T.8X+XQ.+X8X3X3X3X3X3X3X8X8XwXwXwXeXtXtXtXtXtXtXtXtXtXtXtXtX",
"tXtXtXtXtXtXtXtXtXtXtXtXeXwXwXwX3X1X1X$X1X$X1X$X$X3X^.k.l.$XwXU.a.i.k.3XtXb.x.$X$X$X$X$X1X1X1X3X3X8XwXwXeXtXtXtXtXtXtXtXtXtXtXtX",
"tXtXtXtXtXtXtXtXtXtXtXtXtXwXwX8X2X%X%X%X%X%X%X%X&X&XQ.l.c./.(.c.k.k.k.Q.&Xv.c.&X%X%X%X%X%X%X1X1X3X8X8XwXeXtXtXtXtXtXtXtXtXtXtXtX",
"tXtXtXtXtXtXtXtXtXtXtXtXqXwXwX8X8X2X*X%X%X%X%X%X%X%X2X2X+X+X&X+X%X&X%X&XXX8X8X@X%X%X%X%X%X%X*X2X%X3X8XwXeXqXeXtXtXtXtXtXtXtXtXtX",
"tXtXtXtXtXtXtXtXtXtXtXtXtXtXeXqXwXwXwX8X8X8X8X8X8X8X8X2X8X8X8X8X8X8X8X8X8X8X8X8X8X8X8X8X8XwXwX8XwXwXwX0XqXtXtXtXtXtXtXtXtXtXtXtX",
"tXtXtXtXtXtXtXtXtXtXqXtXtXtXtXtXtXtXtXeXtXqXtXqXtXqXeXeXqXqXtXqXtXqXtXqXqXqXtXqXtXtXeXeXwXeXeXqXqXqXtXtXtXtXtXtXtXtXqXqXtXtXtXtX",
"qXqXqXqXqXtXtXtXtXtXtXtXtXqXqXtXtXtXtXtXtXqXqXqXqXqXqXqXqXqXqXqXqXqXqXqXqXqXqXqXqXqXqXqXqXqXtXtX9X9X9XtXtXtXtXtXtXtXtXtXtXtXtXtX",
"6X6X6X6X6X6X6X6X5X6X6X6X6X6X6X6X6X6X6X6X6X6X6X6X6X6X6X6X6X6X6X6X6X6X6X6X6X6X6X6X6X6X6X6X6X6X6X6X6X6X6X6X6X6X6X6X5X6X6X6X6X5X6X6X",
"7.e.7.7.7.7.e.7.u.t.w.7.e.t.w.8.e.e.e.e.e.e.e.e.e.e.e.e.e.e.e.e.e.e.e.e.e.e.e.e.e.w.e.e.w.w.w.e.6.7.7.7.6.6.7.7.e.w.7.7.7.7.e.e.",
" ...X...X.#.%.#. .O.O... . .O.O.o.o.o.o.o.o.o.o.o.o.o.o.o.o.o.o.o.o.o.o.o.o.o.o.o.o.o. .o. .@.*.*.;.,.,.:.*.%.#.;.%.#.%.:.;.#. .",
"1.9.q.q.q.y.y.y.9.y.y.0.*.O.#.*.$.&.$.&.$.&.$.&.$.&.$.&.$.&.$.&.$.$.$.$.$.$.$.$.$.$.$.&.&.&.-.,.0.0.9.9.0.1.<.<.9.9.9.q.r.9.<.2.",
"X.=.;.=.X.X.#.X.=.;.*.#.#.%.%.@.@.+.+.+.+.+.+.+.+.+.+.+.+.+.+.+.+.$.$.@.@.@.@.@.+.+.@.&.$.+.+.@...X.@.......X.@.............@.#."
};
